#!OML:ASF X:\für Bonn\!DataBase\2005_08_12_Daniel\c3d\Daniel.ASF
:FULLY-SPECIFIED
:DEGREES
81
root 0.744765 7.26303 -0.74358 74.4178 -88.4531 -105.279
lowerback 60.014 -3.35298 4.87985
upperback 3.89641 -3.07339 -2.25545
thorax -17.7399 -2.19142 -2.94073
lowerneck 12.3058 2.38281 -2.06497
upperneck -5.07948 2.85776 0.264689
head -3.91264 1.43857 0.251252
rclavicle 1.68967e-015 -8.74653e-015
rhumerus 70.2263 -0.220268 -102.74
rradius 8.15677
rwrist 69.4304
rhand -21.3787 11.9004
rfingers 7.12502
rthumb 5.00867 -18.0204
lclavicle 1.68967e-015 -8.74653e-015
lhumerus 70.2733 10.9637 118.156
lradius 10.4057
lwrist -91.5886
lhand -22.0902 -2.4532
lfingers 7.12502
lthumb 4.3217 27.4827
rfemur 13.6256 -59.9995 -113.72
rtibia 148.696
rfoot -20.877 77.62
rtoes -3.04011
lfemur -16.5962 66.1654 82.3441
ltibia 147.473
lfoot -14.1836 -72.5852
ltoes 6.9436
82
root 0.751123 7.17455 -0.74222 74.2327 -88.4775 -105.302
lowerback 60.5112 -3.40438 4.89683
upperback 3.88392 -3.13169 -2.28513
thorax -17.7844 -2.22403 -2.94224
lowerneck 12.5853 2.40563 -2.09722
upperneck -5.49445 2.87854 0.268398
head -4.11858 1.45163 0.250672
rclavicle 6.06293e-015 1.11319e-014
rhumerus 70.2437 -0.220945 -102.827
rradius 8.17779
rwrist 69.5897
rhand -21.5015 11.9363
rfingers 7.12502
rthumb 4.89008 -17.9872
lclavicle 6.06293e-015 1.11319e-014
lhumerus 70.2515 11.0805 118.063
lradius 10.3702
lwrist -91.6732
lhand -22.2221 -2.64476
lfingers 7.12502
lthumb 4.19431 27.2937
rfemur 14.613 -59.634 -116.206
rtibia 149.442
rfoot -25.762 77.7718
rtoes -3.68406
lfemur -15.0538 66.5139 85.1519
ltibia 148.208
lfoot -16.2538 -72.8708
ltoes 6.45369
83
root 0.75757 7.09591 -0.740927 73.734 -88.5144 -104.992
lowerback 60.975 -3.45661 4.93267
upperback 3.89124 -3.18444 -2.33155
thorax -17.8013 -2.2551 -2.97556
lowerneck 12.8056 2.40196 -2.10286
upperneck -5.89387 2.86919 0.265604
head -4.30753 1.44957 0.24617
rclavicle 1.5704e-014 -7.15625e-015
rhumerus 70.2952 -0.261675 -102.914
rradius 8.15068
rwrist 69.6323
rhand -21.6259 11.9932
rfingers 7.12502
rthumb 4.77004 -17.9331
lclavicle 1.5704e-014 -7.15625e-015
lhumerus 70.1999 11.1386 117.896
lradius 10.3147
lwrist -91.8375
lhand -22.3364 -2.70429
lfingers 7.12502
lthumb 4.0839 27.2363
rfemur 15.4748 -59.2532 -118.444
rtibia 150.12
rfoot -30.4955 77.8107
rtoes -4.23324
lfemur -13.7519 66.7958 87.5331
ltibia 148.861
lfoot -18.1409 -73.054
ltoes 6.02822
84
root 0.763837 7.02718 -0.739209 73.8691 -88.5439 -105.282
lowerback 61.4026 -3.49247 4.95699
upperback 3.90278 -3.22192 -2.35898
thorax -17.8066 -2.27925 -2.99048
lowerneck 12.8914 2.39571 -2.12971
upperneck -6.48653 2.85805 0.292171
head -4.06105 1.44409 0.227737
rclavicle -9.93923e-016 -9.14409e-015
rhumerus 70.3282 -0.291628 -102.979
rradius 8.12629
rwrist 69.5815
rhand -21.6876 12.109
rfingers 7.12502
rthumb 4.71038 -17.8187
lclavicle -9.93923e-016 -9.14409e-015
lhumerus 70.2198 11.2991 118.055
lradius 10.2523
lwrist -92.467
lhand -22.4745 -2.77212
lfingers 7.12502
lthumb 3.95055 27.171
rfemur 16.1736 -58.9266 -120.335
rtibia 150.729
rfoot -35.001 77.6292
rtoes -4.92866
lfemur -12.3975 67.0107 89.8595
ltibia 149.447
lfoot -20.1919 -73.1848
ltoes 5.51333
85
root 0.770947 6.96901 -0.73739 72.6867 -88.5995 -104.231
lowerback 61.7985 -3.55069 4.97042
upperback 3.93039 -3.29896 -2.40417
thorax -17.7936 -2.31804 -3.00134
lowerneck 12.8687 2.40146 -2.09599
upperneck -6.65071 2.8675 0.23274
head -4.10671 1.45249 0.202469
rclavicle -4.07509e-015 7.15625e-015
rhumerus 70.3647 -0.296057 -103.071
rradius 8.07569
rwrist 69.4126
rhand -21.7048 12.2465
rfingers 7.12502
rthumb 4.69379 -17.6815
lclavicle -4.07509e-015 7.15625e-015
lhumerus 70.2574 11.4821 118.232
lradius 10.2157
lwrist -93.23
lhand -22.5646 -2.80255
lfingers 7.12502
lthumb 3.86359 27.1422
rfemur 16.7213 -58.649 -121.949
rtibia 151.255
rfoot -38.5344 77.402
rtoes -5.38115
lfemur -11.3479 67.2139 91.6433
ltibia 149.953
lfoot -22.1312 -73.1524
ltoes 5.04897
86
root 0.77831 6.92348 -0.735964 71.9612 -88.6318 -103.59
lowerback 62.1073 -3.59137 5.00031
upperback 3.99153 -3.34508 -2.43295
thorax -17.7306 -2.34517 -3.01835
lowerneck 12.8697 2.38945 -2.10138
upperneck -6.85436 2.84884 0.203561
head -4.1691 1.44648 0.194235
rclavicle 1.46107e-014 -8.74653e-015
rhumerus 70.3682 -0.346176 -103.129
rradius 8.04391
rwrist 69.1222
rhand -21.7226 12.4168
rfingers 7.12502
rthumb 4.67664 -17.5116
lclavicle 1.46107e-014 -8.74653e-015
lhumerus 70.2288 11.6216 118.283
lradius 10.1916
lwrist -93.8764
lhand -22.6827 -2.83588
lfingers 7.12502
lthumb 3.74951 27.1109
rfemur 17.2827 -58.3877 -123.338
rtibia 151.703
rfoot -42.4364 76.9539
rtoes -5.96454
lfemur -10.4886 67.3941 93.0732
ltibia 150.376
lfoot -24.2314 -72.9593
ltoes 4.57822
87
root 0.786412 6.89048 -0.734731 71.2577 -88.6612 -102.95
lowerback 62.3567 -3.62519 5.02698
upperback 4.08359 -3.38899 -2.45747
thorax -17.6258 -2.37135 -3.03143
lowerneck 12.8923 2.38194 -2.09839
upperneck -7.0748 2.83544 0.160449
head -4.23993 1.4437 0.179618
rclavicle -1.19271e-015 -1.07344e-014
rhumerus 70.2953 -0.404462 -103.181
rradius 8.07271
rwrist 68.7433
rhand -21.7432 12.6876
rfingers 7.12502
rthumb 4.6567 -17.2412
lclavicle -1.19271e-015 -1.07344e-014
lhumerus 70.0375 11.6564 117.882
lradius 10.2514
lwrist -93.9758
lhand -22.6805 -2.8479
lfingers 7.12502
lthumb 3.75167 27.0988
rfemur 17.7586 -58.1844 -124.378
rtibia 152.051
rfoot -45.7538 76.3162
rtoes -6.65618
lfemur -9.78238 67.5416 94.1614
ltibia 150.711
lfoot -26.3118 -72.6378
ltoes 4.04041
88
root 0.796432 6.87292 -0.732981 69.9295 -88.6961 -101.634
lowerback 62.5338 -3.6721 5.0632
upperback 4.19244 -3.44696 -2.49796
thorax -17.5006 -2.40241 -3.06155
lowerneck 13.0008 2.37286 -2.09769
upperneck -7.33355 2.81756 0.12276
head -4.33663 1.43845 0.166088
rclavicle 4.27387e-015 1.90833e-014
rhumerus 70.1494 -0.511463 -103.236
rradius 8.16869
rwrist 68.2365
rhand -21.7912 12.9827
rfingers 7.12502
rthumb 4.61039 -16.9471
lclavicle 4.27387e-015 1.90833e-014
lhumerus 69.8252 11.6924 117.485
lradius 10.3114
lwrist -94.0099
lhand -22.6727 -2.85847
lfingers 7.12502
lthumb 3.7592 27.0881
rfemur 18.1422 -58.1076 -125.065
rtibia 152.288
rfoot -48.1601 75.5911
rtoes -7.2817
lfemur -9.47927 67.7138 94.5473
ltibia 150.929
lfoot -28.0157 -72.1642
ltoes 3.57424
